<?xml version="1.0" encoding="utf-8"?>
<!-- Generator: Adobe Illustrator 16.0.0, SVG Export Plug-In . SVG Version: 6.00 Build 0)  -->
<!DOCTYPE svg PUBLIC "-//W3C//DTD SVG 1.1//EN" "http://www.w3.org/Graphics/SVG/1.1/DTD/svg11.dtd">
<svg version="1.1" id="Layer_1" xmlns="http://www.w3.org/2000/svg" xmlns:xlink="http://www.w3.org/1999/xlink" x="0px" y="0px"
	 width="120px" height="120px" viewBox="0 0 120 120" enable-background="new 0 0 120 120" xml:space="preserve">
<rect y="39" width="23.628" height="41.998"/>
<polygon points="46.929,107.436 18.052,80.998 18.052,39.667 46.929,12.563 53.555,60 "/>
<path d="M46.929,12.563c0,0,6.625,23.824,6.625,47.437c0,23.613-6.625,47.436-6.625,47.436"/>
<path fill="none" stroke="#000000" stroke-width="11" stroke-linejoin="bevel" stroke-miterlimit="10" d="M99.482,4.611
	c0,0,14.33,23.933,14.33,53.707c0,29.772-12.322,53.706-12.322,53.706"/>
<path fill="none" stroke="#000000" stroke-width="11" stroke-linejoin="bevel" stroke-miterlimit="10" d="M82.107,19.142
	c0,0,10.636,17.76,10.636,39.853s-9.143,39.854-9.143,39.854"/>
<path fill="none" stroke="#000000" stroke-width="11" stroke-linejoin="bevel" stroke-miterlimit="10" d="M65.733,33.583
	c0,0,6.781,11.324,6.781,25.412c0,14.087-5.83,25.412-5.83,25.412"/>
</svg>
