<?xml version="1.0" encoding="utf-8"?>
<!-- Generator: Adobe Illustrator 16.0.0, SVG Export Plug-In . SVG Version: 6.00 Build 0)  -->
<!DOCTYPE svg PUBLIC "-//W3C//DTD SVG 1.1//EN" "http://www.w3.org/Graphics/SVG/1.1/DTD/svg11.dtd">
<svg version="1.1" id="Layer_1" xmlns="http://www.w3.org/2000/svg" xmlns:xlink="http://www.w3.org/1999/xlink" x="0px" y="0px"
	 width="120px" height="120px" viewBox="0 0 120 120" enable-background="new 0 0 120 120" xml:space="preserve">
<g>
	<g>
		<path d="M72.03,11.626h14.018c7.629,0,11.677,4.125,13.545,8.952l9.925,25.346c3.932,0.499,10.901,5.073,10.901,13.728v32.247
			h-9.652v10.297c0,12.685-18.135,12.536-18.135,0V91.898H60.02h-0.019h0.02h-0.018H27.391v10.297c0,12.536-18.134,12.685-18.134,0
			V91.898h-9.652V59.651c0-8.655,6.962-13.229,10.893-13.728l9.925-25.346c1.868-4.827,5.917-8.952,13.545-8.952h14.18"/>
	</g>
	<g>
		<g>
			<path fill="#FFFFFF" d="M60.001,45.326h-0.018h-39.21l7.473-19.611c0.934-2.802,2.336-4.827,5.605-4.857h26.132h0.018h0.019
				h26.145c3.27,0.03,4.671,2.055,5.604,4.857l7.473,19.611H60.02H60.001z"/>
		</g>
		<g>
			<g>
				<ellipse fill="#FFFFFF" cx="18.612" cy="63.638" rx="8.376" ry="8.548"/>
				<path fill="#FFFFFF" d="M18.612,63.638"/>
			</g>
			<g>
				<ellipse fill="#FFFFFF" cx="101.403" cy="63.638" rx="8.377" ry="8.548"/>
				<path fill="#FFFFFF" d="M101.403,63.638"/>
			</g>
		</g>
	</g>
</g>
</svg>
