<?xml version="1.0" encoding="utf-8"?>
<!-- Generator: Adobe Illustrator 16.0.0, SVG Export Plug-In . SVG Version: 6.00 Build 0)  -->
<!DOCTYPE svg PUBLIC "-//W3C//DTD SVG 1.1//EN" "http://www.w3.org/Graphics/SVG/1.1/DTD/svg11.dtd">
<svg version="1.1" id="Layer_1" xmlns="http://www.w3.org/2000/svg" xmlns:xlink="http://www.w3.org/1999/xlink" x="0px" y="0px"
	 width="120px" height="120px" viewBox="0 0 120 120" enable-background="new 0 0 120 120" xml:space="preserve">
<g>
	<g>
		<path d="M112.988,91.131H0.149c0,9.994,7.614,14.627,13.727,14.627h85.389C106.581,105.758,112.988,100.008,112.988,91.131z"/>
	</g>
	<g>
		<g>
			<path d="M14.018,16.242v54.066c0,7.32,6.323,13.123,13.163,13.123h53.404c7.724,0,12.979-6.478,12.979-13.123v-4.514
				c15.226,0,26.288-11.449,26.288-24.776c0-13.61-10.842-24.776-23.455-24.776H14.018z"/>
		</g>
		<g>
			<path fill="#FFFFFF" d="M110.138,41.042C110.177,36.284,106.829,26.4,96.4,26.4l-0.005-0.005l-2.833-0.004v29.124
				c10.854,0.701,16.574-6.713,16.574-14.482L110.138,41.042z"/>
		</g>
	</g>
</g>
</svg>
