<?xml version="1.0" encoding="utf-8"?>
<!-- Generator: Adobe Illustrator 16.0.0, SVG Export Plug-In . SVG Version: 6.00 Build 0)  -->
<!DOCTYPE svg PUBLIC "-//W3C//DTD SVG 1.1//EN" "http://www.w3.org/Graphics/SVG/1.1/DTD/svg11.dtd">
<svg version="1.1" id="Layer_1" xmlns="http://www.w3.org/2000/svg" xmlns:xlink="http://www.w3.org/1999/xlink" x="0px" y="0px"
	 width="120px" height="120px" viewBox="0 0 120 120" enable-background="new 0 0 120 120" xml:space="preserve">
<g>
	<g>
		<path d="M112.988,91.131H0.149c0,9.994,7.614,14.627,13.727,14.627h85.39C106.581,105.758,112.988,100.008,112.988,91.131z"/>
	</g>
	<path d="M96.396,16.242H14.018v54.066c0,7.319,6.323,13.123,13.163,13.123h53.404c7.724,0,12.979-6.479,12.979-13.123v-4.515
		c15.226,0,26.287-11.449,26.287-24.776C119.852,27.408,109.01,16.242,96.396,16.242z M110.137,41.033
		c0,7.769-5.721,15.183-16.574,14.482V26.391l2.832,0.004L96.4,26.4c10.429,0,13.776,9.884,13.738,14.642L110.137,41.033z"/>
</g>
</svg>
