<?xml version="1.0" encoding="utf-8"?>
<!-- Generator: Adobe Illustrator 16.0.0, SVG Export Plug-In . SVG Version: 6.00 Build 0)  -->
<!DOCTYPE svg PUBLIC "-//W3C//DTD SVG 1.1//EN" "http://www.w3.org/Graphics/SVG/1.1/DTD/svg11.dtd">
<svg version="1.1" id="Layer_1" xmlns="http://www.w3.org/2000/svg" xmlns:xlink="http://www.w3.org/1999/xlink" x="0px" y="0px"
	 width="120px" height="120px" viewBox="0 0 120 120" enable-background="new 0 0 120 120" xml:space="preserve">
<g>
	<g>
		<path d="M56.027,49.673c0,4.945-4.505,10.24-10.346,10.24v51.202c0,11.848-16.149,11.848-16.149,0V59.913
			c-5.688,0-10.639-4.381-10.639-10.944V3.037c0-3.998,5.779-4.152,5.779,0.154v33.956h4.836V2.883c0-3.675,5.563-3.912,5.563,0.154
			v34.109h4.998V2.924c0-3.837,5.401-3.992,5.401,0.154v34.069h4.917V2.924c0-3.797,5.643-3.953,5.643,0.154L56.027,49.673z"/>
	</g>
	<g>
		<path d="M99.106,13.712v97.361c0,11.587-16.182,11.416-16.182,0V74.21h-8.617V13.712C74.308-4.489,99.106-4.489,99.106,13.712z"/>
	</g>
</g>
</svg>
