<?xml version="1.0" encoding="utf-8"?>
<!-- Generator: Adobe Illustrator 16.0.0, SVG Export Plug-In . SVG Version: 6.00 Build 0)  -->
<!DOCTYPE svg PUBLIC "-//W3C//DTD SVG 1.1//EN" "http://www.w3.org/Graphics/SVG/1.1/DTD/svg11.dtd">
<svg version="1.1" id="Layer_1" xmlns="http://www.w3.org/2000/svg" xmlns:xlink="http://www.w3.org/1999/xlink" x="0px" y="0px"
	 width="120px" height="120px" viewBox="0 0 120 120" enable-background="new 0 0 120 120" xml:space="preserve">
<g>
	<path d="M60.005,23.299c9.799,0,19.014,3.817,25.946,10.75C92.884,40.98,96.701,50.197,96.701,60c0,9.803-3.817,19.02-10.75,25.952
		C79.02,92.884,69.803,96.701,60,96.701c-9.803,0-19.02-3.817-25.952-10.75C27.116,79.02,23.299,69.804,23.299,60
		c0-9.804,3.817-19.02,10.75-25.952c6.931-6.931,16.148-10.749,25.955-10.75H60.005 M60,3.299
		C45.491,3.3,30.977,8.836,19.906,19.906c-22.144,22.144-22.143,58.045,0,80.188C30.978,111.166,45.489,116.701,60,116.701
		s29.021-5.535,40.094-16.607c22.144-22.144,22.144-58.044,0-80.188C89.021,8.833,74.513,3.297,60,3.299L60,3.299z"/>
</g>
<rect x="49.307" y="11.443" transform="matrix(0.7071 -0.7071 0.7071 0.7071 -24.7729 59.8067)" width="20.999" height="96.728"/>
</svg>
