<?xml version="1.0" encoding="utf-8"?>
<!-- Generator: Adobe Illustrator 16.0.0, SVG Export Plug-In . SVG Version: 6.00 Build 0)  -->
<!DOCTYPE svg PUBLIC "-//W3C//DTD SVG 1.1//EN" "http://www.w3.org/Graphics/SVG/1.1/DTD/svg11.dtd">
<svg version="1.1" id="Layer_1" xmlns="http://www.w3.org/2000/svg" xmlns:xlink="http://www.w3.org/1999/xlink" x="0px" y="0px"
	 width="120px" height="120px" viewBox="0 0 120 120" enable-background="new 0 0 120 120" xml:space="preserve">
<rect x="1.208" y="21.538" width="117.584" height="76.925"/>
<g>
	<path fill="#FFFFFF" d="M60,51.815l58.797,46.188H1.203L60,51.815 M60,41.642l-4.942,3.882L-3.739,91.712l-18.192,14.291H1.203
		h117.594h23.135l-18.192-14.291L64.941,45.524L60,41.642L60,41.642z"/>
</g>
<g>
	<polygon points="-10.364,17.786 130.363,17.786 60,73.061 	"/>
	<path fill="#FFFFFF" d="M118.796,21.786L60,67.974L1.203,21.786H118.796 M141.931,13.786h-23.135H1.203h-23.134l18.192,14.291
		l58.796,46.188L60,78.146l4.942-3.882l58.797-46.188L141.931,13.786L141.931,13.786z"/>
</g>
</svg>
