<?xml version="1.0" encoding="utf-8"?>
<!-- Generator: Adobe Illustrator 16.0.0, SVG Export Plug-In . SVG Version: 6.00 Build 0)  -->
<!DOCTYPE svg PUBLIC "-//W3C//DTD SVG 1.1//EN" "http://www.w3.org/Graphics/SVG/1.1/DTD/svg11.dtd">
<svg version="1.1" id="Layer_1" xmlns="http://www.w3.org/2000/svg" xmlns:xlink="http://www.w3.org/1999/xlink" x="0px" y="0px"
	 width="120px" height="120px" viewBox="0 0 120 120" enable-background="new 0 0 120 120" xml:space="preserve">
<g>
	<g>
		<path d="M4.149,11.853c-4.33,5.419-13.953,31.246,27.302,73.534c43.46,44.551,71.504,35.021,76.332,29.994L78.718,86.315
			c-4.056,4.056-9.286,0.456-19.325-7.729c-6.642-5.416-14.284-12.699-20.91-20.91c-4.65-5.761-8.762-11.811-4.514-16.058
			L4.149,11.853z"/>
	</g>
	<g>
		<path d="M118.291,104.975c1.878-1.879,1.693-4.755-0.022-6.472v-0.026c0,0-22.665-22.64-22.679-22.652
			c-1.797-1.798-4.671-1.758-6.439,0.012L78.718,86.315l29.065,29.065c0,0,10.499-10.374,10.499-10.384L118.291,104.975z"/>
	</g>
	<g>
		<path d="M44.45,31.135c1.878-1.878,1.696-4.755-0.019-6.472v-0.026c0,0-23.321-23.292-23.334-23.306
			c-1.797-1.797-4.67-1.757-6.439,0.012L4.149,11.853l29.819,29.765c0,0,10.476-10.449,10.474-10.461L44.45,31.135z"/>
	</g>
</g>
</svg>
