<?xml version="1.0" encoding="utf-8"?>
<!-- Generator: Adobe Illustrator 16.0.0, SVG Export Plug-In . SVG Version: 6.00 Build 0)  -->
<!DOCTYPE svg PUBLIC "-//W3C//DTD SVG 1.1//EN" "http://www.w3.org/Graphics/SVG/1.1/DTD/svg11.dtd">
<svg version="1.1" id="Layer_1" xmlns="http://www.w3.org/2000/svg" xmlns:xlink="http://www.w3.org/1999/xlink" x="0px" y="0px"
	 width="120px" height="120px" viewBox="0 0 120 120" enable-background="new 0 0 120 120" xml:space="preserve">
<path d="M118.27,98.503v-0.026c0,0-22.666-22.64-22.68-22.651c-1.797-1.798-4.671-1.759-6.439,0.012L78.718,86.314
	c-4.056,4.057-9.286,0.457-19.325-7.729c-6.642-5.416-14.284-12.699-20.91-20.91c-4.65-5.761-8.762-11.811-4.514-16.058l0,0
	c0.011-0.011,10.476-10.449,10.474-10.46l0.008-0.022c1.878-1.878,1.696-4.755-0.019-6.472v-0.026c0,0-23.321-23.292-23.334-23.306
	c-1.797-1.797-4.67-1.757-6.439,0.012L4.149,11.853c-4.33,5.419-13.953,31.246,27.302,73.534
	c43.46,44.551,71.504,35.021,76.332,29.994c0,0,10.499-10.375,10.499-10.385l0.009-0.021
	C120.169,103.096,119.984,100.221,118.27,98.503z"/>
</svg>
