<?xml version="1.0" encoding="utf-8"?>
<!-- Generator: Adobe Illustrator 16.0.0, SVG Export Plug-In . SVG Version: 6.00 Build 0)  -->
<!DOCTYPE svg PUBLIC "-//W3C//DTD SVG 1.1//EN" "http://www.w3.org/Graphics/SVG/1.1/DTD/svg11.dtd">
<svg version="1.1" id="Layer_1" xmlns="http://www.w3.org/2000/svg" xmlns:xlink="http://www.w3.org/1999/xlink" x="0px" y="0px"
	 width="120px" height="120px" viewBox="0 0 120 120" enable-background="new 0 0 120 120" xml:space="preserve">
<g>
	<path fill="#010101" d="M3.272,58.772c0,31.204,25.296,56.5,56.5,56.5c31.203,0,56.5-25.296,56.5-56.5
		c0-16.264-6.882-30.911-17.88-41.221L84.027,32.884c6.913,6.482,11.245,15.688,11.245,25.889c0,19.575-15.926,35.5-35.5,35.5
		c-19.575,0-35.5-15.925-35.5-35.5"/>
</g>
<g>
	<path fill="#010101" d="M95.272,58.772c0,19.575-15.925,35.5-35.5,35.5c-19.574,0-35.5-15.926-35.5-35.5
		c0-10.201,4.332-19.406,11.245-25.889L21.152,17.551c-10.998,10.31-17.88,24.957-17.88,41.221c0,31.204,25.297,56.5,56.5,56.5
		c31.204,0,56.5-25.297,56.5-56.5"/>
</g>
<rect x="49.785" fill="#010101" width="19.975" height="61.576"/>
</svg>
