<?xml version="1.0" encoding="utf-8"?>
<!-- Generator: Adobe Illustrator 16.0.0, SVG Export Plug-In . SVG Version: 6.00 Build 0)  -->
<!DOCTYPE svg PUBLIC "-//W3C//DTD SVG 1.1//EN" "http://www.w3.org/Graphics/SVG/1.1/DTD/svg11.dtd">
<svg version="1.1" id="Layer_1" xmlns="http://www.w3.org/2000/svg" xmlns:xlink="http://www.w3.org/1999/xlink" x="0px" y="0px"
	 width="120px" height="120px" viewBox="0 0 120 120" enable-background="new 0 0 120 120" xml:space="preserve">
<g>
	<path fill="#FFFFFF" d="M60,106c-25.364,0-46-20.636-46-46s20.635-46,46-46s46,20.635,46,46S85.364,106,60,106z"/>
	<path d="M60,24.5c19.574,0,35.5,15.925,35.5,35.5c0,19.574-15.926,35.5-35.5,35.5c-19.575,0-35.5-15.926-35.5-35.5
		C24.5,40.425,40.425,24.5,60,24.5 M60,3.5C28.796,3.5,3.5,28.796,3.5,60c0,31.203,25.296,56.5,56.5,56.5
		c31.203,0,56.5-25.297,56.5-56.5C116.5,28.796,91.203,3.5,60,3.5L60,3.5z"/>
</g>
<polygon fill="#FFFFFF" points="101.23,98.63 60,60 68.782,43.5 120,43.5 129.75,91.375 "/>
<line x1="120" y1="0" x2="120" y2="45.336"/>
<polygon points="120,22.406 119.992,69.416 74.827,56.386 "/>
</svg>
