<?xml version="1.0" encoding="utf-8"?>
<!-- Generator: Adobe Illustrator 16.0.0, SVG Export Plug-In . SVG Version: 6.00 Build 0)  -->
<!DOCTYPE svg PUBLIC "-//W3C//DTD SVG 1.1//EN" "http://www.w3.org/Graphics/SVG/1.1/DTD/svg11.dtd">
<svg version="1.1" id="Layer_1" xmlns="http://www.w3.org/2000/svg" xmlns:xlink="http://www.w3.org/1999/xlink" x="0px" y="0px"
	 width="8px" height="8px" viewBox="0 0 8 8" enable-background="new 0 0 8 8" xml:space="preserve">
<path id="search" d="M7.99,6.928L5.847,4.784c0.289-0.476,0.458-1.033,0.458-1.63C6.305,1.412,4.895,0,3.152,0
	C1.411,0,0,1.412,0,3.154c0,1.741,1.412,3.151,3.153,3.151c0.597,0,1.154-0.169,1.63-0.458l2.145,2.146L7.99,6.928z M1.203,3.154
	c0.002-1.077,0.874-1.949,1.951-1.951c1.076,0.002,1.948,0.874,1.949,1.951C5.101,4.23,4.229,5.103,3.153,5.103
	C2.075,5.103,1.205,4.23,1.203,3.154z"/>
</svg>
