<?xml version="1.0" encoding="utf-8"?>
<!-- Generator: Adobe Illustrator 16.0.0, SVG Export Plug-In . SVG Version: 6.00 Build 0)  -->
<!DOCTYPE svg PUBLIC "-//W3C//DTD SVG 1.1//EN" "http://www.w3.org/Graphics/SVG/1.1/DTD/svg11.dtd">
<svg version="1.1" id="Layer_1" xmlns="http://www.w3.org/2000/svg" xmlns:xlink="http://www.w3.org/1999/xlink" x="0px" y="0px"
	 width="120px" height="120px" viewBox="0 0 120 120" enable-background="new 0 0 120 120" xml:space="preserve">
<path fill="#020202" d="M-6.73,117.344l-11.22-6.457l4.263-2.23c2.713-1.42,3.763-4.768,2.34-7.479
	c-1.42-2.719-4.771-3.762-7.481-2.348l-10.507,5.504l-18.91-10.879l19.012-11.131l13.442,6.816c2.738,1.391,6.072,0.305,7.457-2.434
	c1.386-2.73,0.3-6.068-2.439-7.453l-7.078-3.595l6.09-3.563c2.642-1.546,3.526-4.939,1.983-7.586
	c-1.55-2.645-4.94-3.529-7.591-1.979l-6.124,3.584l0.087-4.483c0.069-3.064-2.367-5.593-5.436-5.656
	c-3.055-0.06-5.587,2.375-5.649,5.433l-0.232,11.279L-53.74,83.82l0.131-22.035l9.651-5.84c2.618-1.584,3.462-4.993,1.882-7.61
	c-1.591-2.624-5-3.467-7.618-1.878l-3.838,2.319l0.043-7.096c0.017-3.071-2.446-5.565-5.511-5.585
	c-3.062-0.014-5.558,2.449-5.577,5.511l-0.042,7.055l-6.653-4.332c-2.568-1.68-6.002-0.952-7.673,1.613
	c-1.679,2.57-0.952,6.001,1.619,7.675l12.625,8.235l-0.131,22.027l-18.876-10.937l-0.488-11.852
	c-0.129-3.054-2.708-5.435-5.774-5.306c-3.057,0.125-5.432,2.707-5.306,5.768l0.199,4.805l-11.199-6.487
	c-2.653-1.532-6.045-0.628-7.586,2.02c-1.53,2.648-0.634,6.047,2.017,7.576l11.03,6.391l-6.718,3.588
	c-2.697,1.441-3.715,4.798-2.279,7.508c1.444,2.697,4.805,3.721,7.507,2.269l12.78-6.821l19.177,11.108l-18.438,10.751l-10.24-5.156
	c-2.741-1.367-6.072-0.275-7.446,2.461c-1.374,2.734-0.283,6.08,2.458,7.443l3.801,1.914l-11.273,6.574
	c-2.643,1.551-3.538,4.947-1.994,7.586c1.536,2.65,4.93,3.545,7.582,1.994l11.708-6.824l-0.126,8.17
	c-0.047,3.07,2.391,5.592,5.459,5.633c3.054,0.049,5.583-2.391,5.63-5.455l0.23-14.877l18.049-10.525l0.001,0.033l0.028-0.016
	l-0.09,20.895l-12.767,7.639c-2.631,1.572-3.478,4.982-1.908,7.604c1.569,2.635,4.971,3.486,7.606,1.91l7.014-4.193l-0.059,13.551
	c-0.019,3.068,2.456,5.564,5.519,5.568c3.058,0.018,5.55-2.455,5.571-5.521l0.056-13.047l3.559,2.332
	c2.554,1.693,5.994,0.965,7.677-1.592c1.684-2.557,0.961-5.986-1.594-7.68l-9.585-6.289l0.095-21.344l19.208,11.055l0.482,14.479
	c0.093,3.066,2.66,5.465,5.717,5.367c3.065-0.111,5.464-2.67,5.364-5.729l-0.254-7.613l11.051,6.359
	c2.65,1.531,6.043,0.609,7.571-2.041C-3.165,122.264-4.078,118.875-6.73,117.344z"/>
<line fill="none" stroke="#000000" stroke-width="13" stroke-miterlimit="10" x1="60" y1="60" x2="60" y2="119.865"/>
<line fill="none" stroke="#000000" stroke-width="13" stroke-miterlimit="10" x1="60" y1="95.223" x2="79.401" y2="106.424"/>
<line fill="none" stroke="#000000" stroke-width="13" stroke-miterlimit="10" x1="60" y1="60" x2="60" y2="0.135"/>
<line fill="none" stroke="#000000" stroke-width="13" stroke-miterlimit="10" x1="60" y1="24.777" x2="40.599" y2="13.576"/>
<line fill="none" stroke="#000000" stroke-width="13" stroke-miterlimit="10" x1="60" y1="24.777" x2="79.402" y2="13.576"/>
<line fill="none" stroke="#000000" stroke-width="13" stroke-miterlimit="10" x1="60" y1="95.223" x2="40.599" y2="106.424"/>
<line fill="none" stroke="#000000" stroke-width="13" stroke-miterlimit="10" x1="60" y1="60" x2="8.156" y2="89.933"/>
<line fill="none" stroke="#000000" stroke-width="13" stroke-miterlimit="10" x1="29.497" y1="77.611" x2="29.497" y2="100.015"/>
<line fill="none" stroke="#000000" stroke-width="13" stroke-miterlimit="10" x1="60" y1="60" x2="111.846" y2="30.067"/>
<line fill="none" stroke="#000000" stroke-width="13" stroke-miterlimit="10" x1="90.504" y1="42.389" x2="90.504" y2="19.987"/>
<line fill="none" stroke="#000000" stroke-width="13" stroke-miterlimit="10" x1="90.504" y1="42.389" x2="109.906" y2="53.591"/>
<line fill="none" stroke="#000000" stroke-width="13" stroke-miterlimit="10" x1="29.497" y1="77.611" x2="10.095" y2="66.41"/>
<line fill="none" stroke="#000000" stroke-width="13" stroke-miterlimit="10" x1="60" y1="59.999" x2="8.156" y2="30.065"/>
<line fill="none" stroke="#000000" stroke-width="13" stroke-miterlimit="10" x1="29.497" y1="42.388" x2="10.095" y2="53.589"/>
<line fill="none" stroke="#000000" stroke-width="13" stroke-miterlimit="10" x1="60" y1="59.999" x2="111.846" y2="89.931"/>
<line fill="none" stroke="#000000" stroke-width="13" stroke-miterlimit="10" x1="90.504" y1="77.61" x2="109.904" y2="66.409"/>
<line fill="none" stroke="#000000" stroke-width="13" stroke-miterlimit="10" x1="90.504" y1="77.61" x2="90.504" y2="100.014"/>
<line fill="none" stroke="#000000" stroke-width="13" stroke-miterlimit="10" x1="29.497" y1="42.388" x2="29.497" y2="19.985"/>
</svg>
