<?xml version="1.0" encoding="utf-8"?>
<!-- Generator: Adobe Illustrator 16.0.0, SVG Export Plug-In . SVG Version: 6.00 Build 0)  -->
<!DOCTYPE svg PUBLIC "-//W3C//DTD SVG 1.1//EN" "http://www.w3.org/Graphics/SVG/1.1/DTD/svg11.dtd">
<svg version="1.1" id="Layer_1" xmlns="http://www.w3.org/2000/svg" xmlns:xlink="http://www.w3.org/1999/xlink" x="0px" y="0px"
	 width="120px" height="120px" viewBox="0 0 120 120" enable-background="new 0 0 120 120" xml:space="preserve">
<g>
	<path fill="#FFFFFF" d="M60,109.494c-27.291,0-49.494-22.203-49.494-49.494S32.709,10.506,60,10.506S109.494,32.709,109.494,60
		S87.291,109.494,60,109.494z"/>
	<path d="M60,16.006c24.259,0,43.994,19.736,43.994,43.994c0,24.259-19.735,43.994-43.994,43.994
		c-24.258,0-43.994-19.735-43.994-43.994C16.006,35.742,35.742,16.006,60,16.006 M60,5.006C29.627,5.006,5.006,29.627,5.006,60
		c0,30.372,24.622,54.994,54.994,54.994c30.372,0,54.994-24.622,54.994-54.994C114.994,29.627,90.372,5.006,60,5.006L60,5.006z"/>
</g>
<g>
	<path fill="#FFFFFF" d="M60,109.494c-27.291,0-49.494-22.203-49.494-49.494S32.709,10.506,60,10.506S109.494,32.709,109.494,60
		S87.291,109.494,60,109.494z"/>
	<path d="M60,16.006c24.259,0,43.994,19.736,43.994,43.994c0,24.259-19.735,43.994-43.994,43.994
		c-24.258,0-43.994-19.735-43.994-43.994C16.006,35.742,35.742,16.006,60,16.006 M60,5.006C29.627,5.006,5.006,29.627,5.006,60
		c0,30.372,24.622,54.994,54.994,54.994c30.372,0,54.994-24.622,54.994-54.994C114.994,29.627,90.372,5.006,60,5.006L60,5.006z"/>
</g>
<g>
	<path d="M114.994,60c0,30.372-24.623,54.994-54.994,54.994V5.006C90.371,5.006,114.994,29.627,114.994,60z"/>
</g>
</svg>
