<?xml version="1.0" encoding="utf-8"?>
<!-- Generator: Adobe Illustrator 16.0.0, SVG Export Plug-In . SVG Version: 6.00 Build 0)  -->
<!DOCTYPE svg PUBLIC "-//W3C//DTD SVG 1.1//EN" "http://www.w3.org/Graphics/SVG/1.1/DTD/svg11.dtd">
<svg version="1.1" id="Layer_1" xmlns="http://www.w3.org/2000/svg" xmlns:xlink="http://www.w3.org/1999/xlink" x="0px" y="0px"
	 width="120px" height="120px" viewBox="0 0 120 120" enable-background="new 0 0 120 120" xml:space="preserve">
<g>
	<g>
		<path d="M20.93,107.658h-8.874C5.938,107.658,0,103.158,0,95.332c0,0,0-56.06,0-56.202c0-6.972,5.796-12.248,12.057-12.248h8.874
			L20.93,107.658L20.93,107.658z"/>
	</g>
	<path d="M76.863,27.024V15.43c0-4.214-3.711-6.889-8.207-6.889c0,0-17.294,0-17.236,0c-4.496,0-8.27,2.675-8.27,6.889v11.594
		H29.108V107.8h61.937V27.024H76.863z M68.609,27.024H51.2V16.128h17.409V27.024z"/>
	<g>
		<path d="M99.082,107.658h8.874c6.118,0,12.056-4.5,12.056-12.326c0,0,0-56.06,0-56.202c0-6.972-5.796-12.248-12.056-12.248h-8.874
			V107.658z"/>
	</g>
</g>
</svg>
