<?xml version="1.0" encoding="utf-8"?>
<!-- Generator: Adobe Illustrator 16.0.0, SVG Export Plug-In . SVG Version: 6.00 Build 0)  -->
<!DOCTYPE svg PUBLIC "-//W3C//DTD SVG 1.1//EN" "http://www.w3.org/Graphics/SVG/1.1/DTD/svg11.dtd">
<svg version="1.1" id="Layer_1" xmlns="http://www.w3.org/2000/svg" xmlns:xlink="http://www.w3.org/1999/xlink" x="0px" y="0px"
	 width="120px" height="120px" viewBox="0 0 120 120" enable-background="new 0 0 120 120" xml:space="preserve">
<path fill="#010101" d="M55.875,94.891c0,0-7.875-11.482-27.938-11.482C9.556,83.408,0,88.751,0,88.751V14.527
	c0,0,9.556-5.341,27.938-5.466C48,8.926,55.875,20.667,55.875,20.667V94.891z"/>
<path fill="#010101" d="M64.026,94.891c0,0,7.875-11.482,27.938-11.482c18.382,0,27.938,5.343,27.938,5.343V14.527
	c0,0-9.556-5.341-27.938-5.466C71.901,8.926,64.026,20.667,64.026,20.667V94.891z"/>
<path fill="#010101" d="M60.091,118c0,0-12.091-17.425-32.153-17.425C9.556,100.575,0,105.918,0,105.918v-8.893
	c0,0,9.556-5.341,27.938-5.466C48,91.424,60.091,109.107,60.091,109.107V118z"/>
<path fill="#010101" d="M60.092,118c0,0,12.091-17.425,32.153-17.425c18.382,0,27.938,5.343,27.938,5.343v-8.893
	c0,0-9.556-5.341-27.938-5.466c-20.062-0.136-32.153,17.548-32.153,17.548V118z"/>
</svg>
