<?xml version="1.0" encoding="UTF-8" standalone="no"?>
<svg
   xmlns:dc="http://purl.org/dc/elements/1.1/"
   xmlns:cc="http://creativecommons.org/ns#"
   xmlns:rdf="http://www.w3.org/1999/02/22-rdf-syntax-ns#"
   xmlns:svg="http://www.w3.org/2000/svg"
   xmlns="http://www.w3.org/2000/svg"
   xmlns:sodipodi="http://sodipodi.sourceforge.net/DTD/sodipodi-0.dtd"
   xmlns:inkscape="http://www.inkscape.org/namespaces/inkscape"
   version="1.1"
   id="Layer_1"
   x="0px"
   y="0px"
   width="120px"
   height="120px"
   viewBox="0 0 120 120"
   enable-background="new 0 0 120 120"
   xml:space="preserve"
   sodipodi:docname="clock.svg"
   inkscape:version="0.92.1 r"><metadata
     id="metadata11"><rdf:RDF><cc:Work
         rdf:about=""><dc:format>image/svg+xml</dc:format><dc:type
           rdf:resource="http://purl.org/dc/dcmitype/StillImage" /></cc:Work></rdf:RDF></metadata><defs
     id="defs9" /><sodipodi:namedview
     pagecolor="#ffffff"
     bordercolor="#666666"
     borderopacity="1"
     objecttolerance="10"
     gridtolerance="10"
     guidetolerance="10"
     inkscape:pageopacity="0"
     inkscape:pageshadow="2"
     inkscape:window-width="1280"
     inkscape:window-height="744"
     id="namedview7"
     showgrid="false"
     inkscape:zoom="4"
     inkscape:cx="49.364283"
     inkscape:cy="59.040279"
     inkscape:window-x="0"
     inkscape:window-y="0"
     inkscape:window-maximized="1"
     inkscape:current-layer="g4"
     showguides="false" /><g
     id="g4"><path
       style="opacity:1;fill:#000000;fill-opacity:1;fill-rule:nonzero;stroke-width:1.47797835;stroke:none"
       d="M 60 5 L 57.451172 5.0585938 A 55 55 0 0 0 5.0332031 61.912109 A 55 55 0 0 0 61.275391 114.98438 A 55 55 0 0 0 114.99609 59.363281 A 55 55 0 0 0 60 5 z M 60 15 A 45 45 0 0 1 104.99805 59.478516 A 45 45 0 0 1 61.042969 104.98828 A 45 45 0 0 1 15.027344 61.564453 A 45 45 0 0 1 57.916016 15.048828 L 60 15 z "
       id="path4488" /><path
       style="opacity:1;fill:#000000;fill-opacity:1;fill-rule:nonzero;stroke:none;stroke-width:1.20698643"
       d="m 87.095387,72.8772 c -1.189029,2.501822 -4.160363,3.558692 -6.662185,2.369663 L 57.853586,64.515557 c -2.501822,-1.189028 -3.558691,-4.160362 -2.369662,-6.662184 1.189028,-2.501822 4.160362,-3.558691 6.662184,-2.369662 l 22.579617,10.731305 c 2.501821,1.189029 3.55869,4.160363 2.369662,6.662184 z"
       id="rect4510-6"
       inkscape:connector-curvature="0"
       inkscape:transform-center-x="-11.289808"
       inkscape:transform-center-y="5.3656529" /><path
       style="opacity:1;fill:#000000;fill-opacity:1;fill-rule:nonzero;stroke:none;stroke-width:1.29032278"
       d="m 46.566649,27.680099 c 2.557857,-1.063142 5.472957,0.140184 6.536099,2.698041 L 64.61692,58.080555 c 1.063142,2.557857 -0.140184,5.472956 -2.69804,6.536098 -2.557857,1.063142 -5.472956,-0.140184 -6.536098,-2.69804 L 43.868609,34.216197 c -1.063142,-2.557856 0.140184,-5.472956 2.69804,-6.536098 z"
       id="rect4510"
       inkscape:connector-curvature="0"
       inkscape:transform-center-y="-13.851208"
       inkscape:transform-center-x="5.7570865" /><path
       style="opacity:1;fill:#000000;fill-opacity:1;fill-rule:nonzero;stroke:none;stroke-width:0.78567415"
       d="m 57.499851,14.999585 h 5 v 5 h -5 z"
       id="rect4553" /><path
       style="opacity:1;fill:#000000;fill-opacity:1;fill-rule:nonzero;stroke:none;stroke-width:0.78567415"
       d="m 14.999852,57.499584 h 5 v 5 h -5 z"
       id="rect4553-7" /><path
       style="opacity:1;fill:#000000;fill-opacity:1;fill-rule:nonzero;stroke:none;stroke-width:0.78567415"
       d="m 57.499851,99.999588 h 5 v 5.000002 h -5 z"
       id="rect4553-7-5" /><path
       style="opacity:1;fill:#000000;fill-opacity:1;fill-rule:nonzero;stroke:none;stroke-width:0.78567415"
       d="m 99.999855,57.499584 h 5.000005 v 5 h -5.000005 z"
       id="rect4553-7-5-3" /><path
       style="opacity:1;fill:#000000;fill-opacity:1;fill-rule:nonzero;stroke:none;stroke-width:1.22448981"
       d="m 59.999851,52.499584 a 7.5,7.5 0 0 1 7.499497,7.413085 7.5,7.5 0 0 1 -7.325677,7.584901 7.5,7.5 0 0 1 -7.669287,-7.237286 7.5,7.5 0 0 1 7.147922,-7.752643"
       id="path4602" /></g></svg>
