<svg xmlns="http://www.w3.org/2000/svg" width="120" height="120" viewBox="0 0 120 120"><path d="m16.8 75.2c0-9.8 2.7-17.8 6.9-23.9 0 12.1 2.9 16.4 9.3 16.4 4.3 0 8.6-3.2 8.6-8.6 0-4.9-3.3-13.8-3.3-23.4 0-9.6 3.2-19.8 16.2-27.4-2.9 7.7-4.1 14.2-4.1 19.6 0 14.1 8.5 20.5 16.1 20.5 6.1 0 12.5-4 12.5-15.6 4.1 4.5 6 9.7 6 14.9 0 8.2-4.5 15.6-4.5 22.2 0 5.5 4.4 8.6 8.6 8.6 7.6 0 9.8-6.8 9.8-18 2.3 3.9 4.3 11.4 4.3 18 0 19.4-18.4 33.5-38.8 33.5 17.3-6.5 20.5-15.2 20.5-24.9-4.3 7.6-8.6 8.6-10.8 8.6-13 0 1.1-24.9-21.7-42.2 3.7 8 5.2 14.9 5.2 20.5 0 12-6.5 18.5-12.8 18.5-5.3 0-10.6-4.3-12.8-13.3 0 12.6 3.7 24.6 20.3 32.7-25.9-4.3-35.6-20.5-35.6-36.7z"/></svg>