<?xml version="1.0" encoding="utf-8"?>
<!-- Generator: Adobe Illustrator 16.0.0, SVG Export Plug-In . SVG Version: 6.00 Build 0)  -->
<!DOCTYPE svg PUBLIC "-//W3C//DTD SVG 1.1//EN" "http://www.w3.org/Graphics/SVG/1.1/DTD/svg11.dtd">
<svg version="1.1" id="Layer_1" xmlns="http://www.w3.org/2000/svg" xmlns:xlink="http://www.w3.org/1999/xlink" x="0px" y="0px"
	 width="120px" height="120px" viewBox="0 0 120 120" enable-background="new 0 0 120 120" xml:space="preserve">
<path fill="#010101" d="M107.58,80.599c0,20.512-16.631,37.141-37.143,37.143c-20.514-0.002-37.143-16.631-37.143-37.143
	c0-9.746,2.203-23.92,15.156-36.873c23.698-23.697,24.809-37.3,24.809-37.3C101.736,34.903,107.58,60.084,107.58,80.599z"/>
<path fill="#010101" d="M29.833,28.5c0,0,3.461,22.667,23.558,35.616C64.549,71.306,87.667,91.438,87.667,98.5
	c0,14.861-35.343,19.24-50.205,19.24c-14.861,0-26.91-12.047-26.91-26.908C10.552,75.969,9.203,49.131,29.833,28.5z"/>
<path fill="#FFFFFF" d="M60.919,49.177c0,0,0.602,7.371,13.443,20.212c7.018,7.018,8.211,14.697,8.211,19.979
	c0,11.114-9.01,20.125-20.125,20.125c-11.115,0-20.126-9.011-20.125-20.125C42.323,78.253,45.489,64.608,60.919,49.177z"/>
</svg>
