<?xml version="1.0" encoding="utf-8"?>
<!-- Generator: Adobe Illustrator 16.0.0, SVG Export Plug-In . SVG Version: 6.00 Build 0)  -->
<!DOCTYPE svg PUBLIC "-//W3C//DTD SVG 1.1//EN" "http://www.w3.org/Graphics/SVG/1.1/DTD/svg11.dtd">
<svg version="1.1" id="Layer_1" xmlns="http://www.w3.org/2000/svg" xmlns:xlink="http://www.w3.org/1999/xlink" x="0px" y="0px"
	 width="120px" height="120px" viewBox="0 0 120 120" enable-background="new 0 0 120 120" xml:space="preserve">
<path fill="#010101" d="M114.251,70.731c2.211,0,4.271-1.793,4.572-3.985c0,0,0.422-3.081,0.422-6.745s-0.422-6.745-0.422-6.745
	c-0.304-2.193-2.361-3.986-4.572-3.986h-11.433c-2.214,0-4.512-1.411-5.106-3.135s-1.414-7.255,0.151-8.819l8.08-8.081
	c1.564-1.565,1.686-4.236,0.269-5.937l-9.507-9.51c-1.701-1.418-4.371-1.298-5.938,0.268l-8.08,8.081
	c-1.564,1.566-4.173,2.196-5.793,1.402c-1.62-0.794-6.163-4.143-6.163-6.356V5.75c0-2.213-1.794-4.271-3.985-4.572
	c0,0-3.081-0.424-6.745-0.424s-6.745,0.424-6.745,0.424c-2.193,0.301-3.988,2.359-3.988,4.572v11.433
	c0,2.213-1.41,4.511-3.135,5.106c-1.725,0.595-7.255,1.414-8.82-0.151l-8.081-8.081c-1.565-1.565-4.236-1.686-5.936-0.269
	l-9.509,9.509c-1.418,1.701-1.298,4.371,0.268,5.937l8.08,8.081c1.565,1.565,2.197,4.172,1.402,5.792
	c-0.795,1.62-4.143,6.163-6.356,6.163H5.75c-2.213,0-4.271,1.794-4.573,3.986c0,0-0.424,3.081-0.424,6.744
	c0,3.665,0.424,6.744,0.424,6.744c0.301,2.194,2.359,3.987,4.573,3.987h11.433c2.213,0,4.511,1.409,5.105,3.135
	c0.595,1.725,1.414,7.254-0.152,8.818l-8.08,8.081c-1.565,1.565-1.686,4.236-0.268,5.938l9.508,9.509
	c1.701,1.417,4.37,1.299,5.936-0.269l8.081-8.08c1.565-1.564,4.172-2.195,5.793-1.401c1.621,0.794,6.162,4.143,6.162,6.355v11.433
	c0,2.212,1.794,4.27,3.988,4.57c0,0,3.08,0.424,6.745,0.424c3.665,0,6.745-0.424,6.745-0.424c2.193-0.301,3.985-2.358,3.985-4.57
	v-11.433c0-2.213,1.411-4.512,3.136-5.106c1.726-0.595,7.256-1.413,8.82,0.151l8.08,8.081c1.565,1.563,4.236,1.686,5.938,0.268
	l9.507-9.506c1.417-1.701,1.299-4.37-0.269-5.938l-8.08-8.08c-1.565-1.564-2.197-4.172-1.401-5.793
	c0.794-1.62,4.143-6.163,6.355-6.163H114.251z M60,81.687c-11.977,0-21.686-9.707-21.686-21.687
	c0-11.976,9.709-21.686,21.686-21.686c11.977,0,21.687,9.709,21.687,21.686C81.687,71.977,71.977,81.687,60,81.687z"/>
</svg>
