<?xml version="1.0" encoding="utf-8"?>
<!-- Generator: Adobe Illustrator 16.0.0, SVG Export Plug-In . SVG Version: 6.00 Build 0)  -->
<!DOCTYPE svg PUBLIC "-//W3C//DTD SVG 1.1//EN" "http://www.w3.org/Graphics/SVG/1.1/DTD/svg11.dtd">
<svg version="1.1" id="Layer_1" xmlns="http://www.w3.org/2000/svg" xmlns:xlink="http://www.w3.org/1999/xlink" x="0px" y="0px"
	 width="120px" height="120px" viewBox="0 0 120 120" enable-background="new 0 0 120 120" xml:space="preserve">
<path d="M103.876,45.208L103.876,45.208c0-24.193-19.683-43.875-43.875-43.875c-24.193,0-43.875,19.682-43.875,43.875v0H5v69.75h110
	v-69.75H103.876z M34.126,45.208c0-14.268,11.607-25.875,25.875-25.875S85.876,30.94,85.876,45.208v0L34.126,45.208L34.126,45.208z
	 M65.875,78.126v20.059H53.986V78.122c-2.485-1.828-4.105-4.766-4.105-8.09c0-5.551,4.5-10.05,10.051-10.05
	c5.552,0,10.05,4.5,10.05,10.05C69.982,73.356,68.362,76.296,65.875,78.126z"/>
</svg>
