<?xml version="1.0" encoding="utf-8"?>
<!-- Generator: Adobe Illustrator 16.0.0, SVG Export Plug-In . SVG Version: 6.00 Build 0)  -->
<!DOCTYPE svg PUBLIC "-//W3C//DTD SVG 1.1//EN" "http://www.w3.org/Graphics/SVG/1.1/DTD/svg11.dtd">
<svg version="1.1" id="Layer_1" xmlns="http://www.w3.org/2000/svg" xmlns:xlink="http://www.w3.org/1999/xlink" x="0px" y="0px"
	 width="120px" height="120px" viewBox="0 0 120 120" enable-background="new 0 0 120 120" xml:space="preserve">
<path d="M60,15.166C28.611,15.166,3.166,34.343,3.166,58c0,11.58,6.107,22.079,16.015,29.789l0.016,25.699L48.9,100.012
	c3.591,0.535,7.3,0.822,11.1,0.822c31.389,0,56.834-19.178,56.834-42.834C116.834,34.343,91.389,15.166,60,15.166z M36.074,67
	c-4.418,0-8-3.582-8-8c0-4.418,3.582-8,8-8c4.418,0,8,3.582,8,8C44.074,63.418,40.492,67,36.074,67z M59.972,67
	c-4.418,0-8-3.582-8-8c0-4.418,3.582-8,8-8s8,3.582,8,8C67.973,63.418,64.391,67,59.972,67z M83.542,67c-4.419,0-8-3.582-8-8
	c0-4.418,3.581-8,8-8s8,3.582,8,8C91.542,63.418,87.961,67,83.542,67z"/>
</svg>
