<svg xmlns="http://www.w3.org/2000/svg" viewBox="0 0 120 120" height="120" width="120"><path d="M14.6 69.7C3.4 80.9 4.3 95.1 12.1 102.9c7.8 7.8 22 8.7 33.2-2.5l40-40C92.7 53 92.5 43.2 87.2 37.9 81.9 32.6 72.1 32.4 64.7 39.8L37.2 67.3 42.9 73 70.4 45.5c5.1-5.1 9-4.1 11.2-1.9 2.2 2.2 3.2 6.1-1.9 11.2l-40 40c-8.8 8.8-17.1 7.2-21.8 2.5-4.7-4.7-6.3-13 2.5-21.8l50-50C76 19.9 81.7 17.9 87 18.1c5.3 0.1 10.3 2.5 14 6.2 3.7 3.7 6 8.7 6.2 14 0.1 5.3-1.8 11-7.4 16.6l-50 50 5.7 5.7 50-50c6.9-6.9 9.9-14.9 9.8-22.5-0.2-7.5-3.5-14.4-8.5-19.4-5-5-11.9-8.3-19.5-8.6-7.6-0.3-15.6 2.8-19.1 6.2z"/></svg>