<?xml version="1.0" encoding="utf-8"?>
<!-- Generator: Adobe Illustrator 16.0.0, SVG Export Plug-In . SVG Version: 6.00 Build 0)  -->
<!DOCTYPE svg PUBLIC "-//W3C//DTD SVG 1.1//EN" "http://www.w3.org/Graphics/SVG/1.1/DTD/svg11.dtd">
<svg version="1.1" id="Layer_1" xmlns="http://www.w3.org/2000/svg" xmlns:xlink="http://www.w3.org/1999/xlink" x="0px" y="0px"
	 width="120px" height="120px" viewBox="0 0 120 120" enable-background="new 0 0 120 120" xml:space="preserve">
<polygon points="112.654,71.172 107.154,61.646 91.505,70.682 73.001,59.999 91.504,49.317 107.156,58.354 112.656,48.828 
	102.504,42.966 115.096,35.697 108.596,24.438 96.004,31.708 96.004,19.987 85.004,19.987 85.004,38.059 66.5,48.742 66.5,27.375 
	82.152,18.339 76.652,8.813 66.5,14.674 66.5,0.135 53.5,0.135 53.5,14.674 43.349,8.813 37.849,18.339 53.5,27.375 53.5,48.74 
	34.997,38.057 34.997,19.985 23.997,19.985 23.997,31.706 11.406,24.437 4.906,35.694 17.498,42.964 7.345,48.826 12.845,58.352 
	28.498,49.315 47.001,59.999 28.496,70.684 12.845,61.647 7.345,71.173 17.497,77.034 4.906,84.304 11.406,95.562 23.997,88.292 
	23.997,100.015 34.997,100.015 34.997,81.941 53.5,71.258 53.5,92.625 37.849,101.661 43.349,111.187 53.5,105.325 53.5,119.865 
	66.5,119.865 66.5,105.325 76.651,111.187 82.151,101.661 66.5,92.625 66.5,71.257 85.004,81.939 85.004,100.014 96.004,100.014 
	96.004,88.29 108.596,95.56 115.096,84.302 102.504,77.032 "/>
<line fill="none" stroke="#000000" stroke-width="13" stroke-miterlimit="10" x1="-90.257" y1="60" x2="-90.257" y2="119.865"/>
<line fill="none" stroke="#000000" stroke-width="11" stroke-miterlimit="10" x1="-90.257" y1="95.223" x2="-70.856" y2="106.424"/>
<line fill="none" stroke="#000000" stroke-width="13" stroke-miterlimit="10" x1="-90.257" y1="60" x2="-90.257" y2="0.135"/>
<line fill="none" stroke="#000000" stroke-width="11" stroke-miterlimit="10" x1="-90.257" y1="24.777" x2="-109.658" y2="13.576"/>
<line fill="none" stroke="#000000" stroke-width="11" stroke-miterlimit="10" x1="-90.257" y1="24.777" x2="-70.855" y2="13.576"/>
<line fill="none" stroke="#000000" stroke-width="11" stroke-miterlimit="10" x1="-90.257" y1="95.223" x2="-109.659" y2="106.424"/>
<line fill="none" stroke="#000000" stroke-width="13" stroke-miterlimit="10" x1="-90.257" y1="60" x2="-142.102" y2="89.933"/>
<line fill="none" stroke="#000000" stroke-width="11" stroke-miterlimit="10" x1="-120.761" y1="77.611" x2="-120.761" y2="100.015"/>
<line fill="none" stroke="#000000" stroke-width="13" stroke-miterlimit="10" x1="-90.257" y1="60" x2="-38.412" y2="30.067"/>
<line fill="none" stroke="#000000" stroke-width="11" stroke-miterlimit="10" x1="-59.753" y1="42.389" x2="-59.753" y2="19.987"/>
<line fill="none" stroke="#000000" stroke-width="11" stroke-miterlimit="10" x1="-59.753" y1="42.389" x2="-40.351" y2="53.591"/>
<line fill="none" stroke="#000000" stroke-width="11" stroke-miterlimit="10" x1="-120.761" y1="77.611" x2="-140.162" y2="66.41"/>
<line fill="none" stroke="#000000" stroke-width="13" stroke-miterlimit="10" x1="-90.257" y1="59.999" x2="-142.102" y2="30.065"/>
<line fill="none" stroke="#000000" stroke-width="11" stroke-miterlimit="10" x1="-120.761" y1="42.388" x2="-140.162" y2="53.589"/>
<line fill="none" stroke="#000000" stroke-width="13" stroke-miterlimit="10" x1="-90.257" y1="59.999" x2="-38.412" y2="89.931"/>
<line fill="none" stroke="#000000" stroke-width="11" stroke-miterlimit="10" x1="-59.753" y1="77.61" x2="-40.353" y2="66.409"/>
<line fill="none" stroke="#000000" stroke-width="11" stroke-miterlimit="10" x1="-59.753" y1="77.61" x2="-59.753" y2="100.014"/>
<line fill="none" stroke="#000000" stroke-width="11" stroke-miterlimit="10" x1="-120.761" y1="42.388" x2="-120.761" y2="19.985"/>
</svg>
