<?xml version="1.0" encoding="utf-8"?>
<!-- Generator: Adobe Illustrator 16.0.0, SVG Export Plug-In . SVG Version: 6.00 Build 0)  -->
<!DOCTYPE svg PUBLIC "-//W3C//DTD SVG 1.1//EN" "http://www.w3.org/Graphics/SVG/1.1/DTD/svg11.dtd">
<svg version="1.1" id="Layer_1" xmlns="http://www.w3.org/2000/svg" xmlns:xlink="http://www.w3.org/1999/xlink" x="0px" y="0px"
	 width="120px" height="120px" viewBox="0 0 120 120" enable-background="new 0 0 120 120" xml:space="preserve">
<g>
	<path fill="#010101" d="M18.932,64.777H0.104V54.81h18.828V64.777z M27.42,34.32L14.131,21.031l7.014-7.014l13.289,13.289
		L27.42,34.32z M27.42,85.449l7.014,7.014l-13.289,13.293l-7.011-7.021L27.42,85.449z M64.894,18.814h-9.969V-0.012h9.969V18.814z
		 M54.924,100.955h9.969v18.822h-9.969V100.955z M92.579,34.32l-7.199-7.014l13.472-13.289l7.014,7.014L92.579,34.32z
		 M92.579,85.261l13.286,13.475l-7.014,7.021L85.565,92.463L92.579,85.261z M119.896,54.81v9.967h-18.825V54.81H119.896z"/>
</g>
<circle fill="#010101" cx="59.147" cy="59.883" r="31.38"/>
</svg>
