<?xml version="1.0" encoding="utf-8"?>
<!-- Generator: Adobe Illustrator 16.0.0, SVG Export Plug-In . SVG Version: 6.00 Build 0)  -->
<!DOCTYPE svg PUBLIC "-//W3C//DTD SVG 1.1//EN" "http://www.w3.org/Graphics/SVG/1.1/DTD/svg11.dtd">
<svg version="1.1" id="Layer_1" xmlns="http://www.w3.org/2000/svg" xmlns:xlink="http://www.w3.org/1999/xlink" x="0px" y="0px"
	 width="52.768px" height="53.283px" viewBox="0 0 52.768 53.283" enable-background="new 0 0 52.768 53.283" xml:space="preserve">
<g id="Layer_4">
	<path fill="#010101" d="M52.768,47.002L36.704,30.938c2.067-3.146,3.276-6.905,3.276-10.947C39.98,8.951,31.031,0,19.989,0
		C8.95,0,0,8.951,0,19.991c0,11.038,8.95,19.989,19.989,19.989c3.777,0,7.296-1.065,10.308-2.884l16.19,16.188L52.768,47.002z
		 M8.884,19.991c0-6.126,4.982-11.104,11.104-11.104c6.125,0,11.107,4.979,11.107,11.104c0,6.123-4.982,11.105-11.107,11.105
		C13.866,31.096,8.884,26.113,8.884,19.991z"/>
</g>
</svg>
